<svg width="29" height="30" viewBox="0 0 29 30" fill="none" xmlns="http://www.w3.org/2000/svg">
<path id="Vector" d="M10.7714 0.5C13.6282 0.5 16.3679 1.63484 18.388 3.65488C20.408 5.67491 21.5429 8.41467 21.5429 11.2714C21.5429 13.9394 20.5651 16.392 18.9577 18.2811L19.4051 18.7286H20.7143L29 27.0143L26.5143 29.5L18.2286 21.2143V19.9051L17.7811 19.4577C15.892 21.0651 13.4394 22.0429 10.7714 22.0429C7.91467 22.0429 5.17491 20.908 3.15488 18.888C1.13484 16.8679 0 14.1282 0 11.2714C0 8.41467 1.13484 5.67491 3.15488 3.65488C5.17491 1.63484 7.91467 0.5 10.7714 0.5ZM10.7714 3.81429C6.62857 3.81429 3.31429 7.12857 3.31429 11.2714C3.31429 15.4143 6.62857 18.7286 10.7714 18.7286C14.9143 18.7286 18.2286 15.4143 18.2286 11.2714C18.2286 7.12857 14.9143 3.81429 10.7714 3.81429Z" fill="#6D95FC"/>
</svg>
